<?xml version="1.0" encoding="UTF-8" standalone="no"?>
<svg
  viewBox="0 0 512 512"
  version="1.1"
  id="svg2"
  sodipodi:docname="circle-sort.svg"
  inkscape:version="1.3.1 (91b66b0783, 2023-11-16, custom)"
  xmlns:inkscape="http://www.inkscape.org/namespaces/inkscape"
  xmlns:sodipodi="http://sodipodi.sourceforge.net/DTD/sodipodi-0.dtd"
  xmlns="http://www.w3.org/2000/svg"
  xmlns:svg="http://www.w3.org/2000/svg"
>
  <sodipodi:namedview
    id="namedview2"
    pagecolor="#505050"
    bordercolor="#eeeeee"
    borderopacity="1"
    inkscape:showpageshadow="0"
    inkscape:pageopacity="0"
    inkscape:pagecheckerboard="0"
    inkscape:deskcolor="#d1d1d1"
    inkscape:zoom="1.5722656"
    inkscape:cx="268.40248"
    inkscape:cy="201.93789"
    inkscape:window-width="1920"
    inkscape:window-height="1011"
    inkscape:window-x="0"
    inkscape:window-y="0"
    inkscape:window-maximized="1"
    inkscape:current-layer="svg2"
  />
  <defs id="defs1">
    <style id="style1">
       {
        opacity: 0.4;
      }
    </style>
  </defs>
  <path
    d="M 16,256 C 16,388.582 123.42,496 256,496 388.58,496 496,388.582 496,256 496,123.42 388.58,16 256,16 123.42,16 16,123.42 16,256 Z M 319.375,151.375 410.625,243 c 3.375,3.5 5.375,8.125 5.375,13 0,4.875 -2,9.625 -5.375,13.125 l -91.25,91.5 C 307.875,372.125 288,364 288,347.5 v -183 c 0,-16.5 19.875,-24.625 31.375,-13.125 z M 224,164.5 v 183 c 0,16.5 -19.875,24.625 -31.375,13.125 l -91.25,-91.5 C 98,265.625 96,260.875 96,256 c 0,-4.875 2,-9.5 5.375,-13 l 91.25,-91.625 C 204.125,139.875 224,148 224,164.5 Z"
    id="path1"
    style="fill: #36ff38; fill-opacity: 1"
  />
  <path
    d="m 224,164.5 v 183 c 0,16.5 -19.875,24.625 -31.375,13.125 l -91.25,-91.5 C 98,265.625 96,260.875 96,256 c 0,-4.875 2,-9.5 5.375,-13 l 91.25,-91.625 C 204.125,139.875 224,148 224,164.5 Z"
    class="fa-primary"
    id="path2"
    style="fill: #ffe61c; fill-opacity: 1"
  />
</svg>
